<?xml version="1.0" standalone="no"?>
<!DOCTYPE svg PUBLIC "-//W3C//DTD SVG 20010904//EN"
 "http://www.w3.org/TR/2001/REC-SVG-20010904/DTD/svg10.dtd">
<svg version="1.0" xmlns="http://www.w3.org/2000/svg"
 width="1280.000000pt" height="1280.000000pt" viewBox="0 0 1280.000000 1280.000000"
 preserveAspectRatio="xMidYMid meet">
<metadata>
Created by potrace 1.14, written by Peter Selinger 2001-2017
</metadata>
<g transform="translate(0.000000,1280.000000) scale(0.100000,-0.100000)"
fill="#000000" stroke="none">
<path d="M7744 12571 c-11 -20 -99 -173 -196 -341 -96 -168 -218 -379 -270
-470 -149 -259 -158 -274 -168 -290 -21 -36 -182 -315 -240 -418 l-35 -62
-1202 -1 c-662 -1 -1206 -2 -1210 -3 -44 -10 -85 -33 -115 -64 -73 -75 -68 37
-68 -1471 0 -989 3 -1366 12 -1393 16 -53 63 -105 117 -131 l46 -22 1370 1
c1517 1 1405 -4 1474 66 69 70 64 -14 66 1213 l1 1110 22 40 c12 22 27 47 32
55 30 46 220 381 220 388 0 4 5 13 12 20 6 6 28 40 47 76 31 56 227 395 252
436 5 8 40 69 77 135 38 66 122 212 187 325 217 377 255 443 255 449 0 5 -345
206 -564 329 -22 13 -55 32 -72 41 l-30 18 -20 -36z"/>
<path d="M7758 8583 c-40 -71 -77 -136 -83 -145 -9 -16 -57 -98 -102 -178 -11
-19 -63 -109 -115 -200 -53 -91 -105 -181 -116 -200 -11 -19 -78 -136 -149
-260 -72 -124 -172 -297 -222 -385 -51 -88 -96 -164 -101 -169 -5 -5 -555 -9
-1237 -10 l-1228 -1 -40 -22 c-52 -28 -88 -68 -109 -121 -15 -39 -16 -162 -16
-1391 0 -1106 2 -1356 14 -1393 16 -54 57 -102 111 -132 l40 -21 1380 0 1380
0 45 27 c46 27 82 67 102 115 8 21 12 318 13 1108 l1 1080 150 260 c83 143
162 280 176 305 34 60 196 341 207 360 6 8 34 58 64 110 30 52 128 223 219
380 90 157 208 361 262 454 53 92 96 170 94 171 -6 5 -112 67 -383 223 -148
85 -273 156 -277 158 -3 2 -39 -53 -80 -123z"/>
<path d="M4420 3078 c-60 -10 -119 -53 -150 -108 l-25 -45 -3 -1359 c-3 -1517
-6 -1430 65 -1500 72 -70 -13 -66 1498 -66 l1360 1 55 37 c38 26 62 52 80 87
l25 49 0 1371 -1 1370 -21 40 c-27 51 -68 92 -113 113 -32 14 -167 16 -1380
17 -740 0 -1365 -3 -1390 -7z"/>
</g>
</svg>
